<?xml version="1.0" encoding="utf-8" standalone="yes"?>
<!DOCTYPE svg PUBLIC "-//W3C//DTD SVG 1.1//EN" "http://www.w3.org/Graphics/SVG/1.1/DTD/svg11.dtd">
<svg style="fill:none;stroke:none;fill-rule:evenodd;clip-rule:evenodd;stroke-linecap:round;stroke-linejoin:round;stroke-miterlimit:1.5;" version="1.1" xmlns="http://www.w3.org/2000/svg" xmlns:xlink="http://www.w3.org/1999/xlink" width="644" height="816" viewBox="0 0 644 816"><style class="text-font-style fontImports" data-font-family="Roboto">@import url(https://fonts.googleapis.com/css2?family=Roboto:wght@400;700&amp;amp;display=block);</style><rect id="" x="0" y="0" width="644" height="816" style="fill: #ffffff;"></rect><g id="items" style="isolation: isolate"><g id="blend" style="mix-blend-mode: normal"><g id="g-root-tf_dbp32l13r8hs2-fill" data-item-order="-788256"><g id="tf_dbp32l13r8hs2-fill-merged" stroke="none" fill="#ffffff" fill-opacity="1"><g><path d="M0 0 H644 V816 H0 V0"></path></g></g></g><g id="g-root-tf_dbp32l13r8hs2-stroke" data-item-order="-788256"></g><g id="g-root-cp_start_g-start_4j6swd13re3gk-fill" data-item-order="-429107" transform="translate(59.86981201171875, 396)"></g><g id="g-root-cp_start_g-start_4j6swd13re3gk-stroke" data-item-order="-429107" transform="translate(59.86981201171875, 396)"><g id="cp_start_g-start_4j6swd13re3gk-stroke" fill="none" stroke-linecap="round" stroke-linejoin="round" stroke-miterlimit="4" stroke="#484848" stroke-width="2" stroke-opacity="1"><g><path d="M 13 10C 11.3431 10 10 11.3431 10 13M 137.447906 10L 13 10M 140.447906 59C 140.447906 60.6569 139.104806 62 137.447906 62M 137.447906 10C 139.104806 10 140.447906 11.3431 140.447906 13M 10 59L 10 13M 140.447906 59L 140.447906 13M 13 62L 137.447906 62M 13 62C 11.3431 62 10 60.6569 10 59"></path></g></g></g><g id="g-root-cp_1_g-1_1cxdu4t13re6f9-fill" data-item-order="-429063" transform="translate(286.3177490234375, 159)"></g><g id="g-root-cp_1_g-1_1cxdu4t13re6f9-stroke" data-item-order="-429063" transform="translate(286.3177490234375, 159)"><g id="cp_1_g-1_1cxdu4t13re6f9-stroke" fill="none" stroke-linecap="round" stroke-linejoin="round" stroke-miterlimit="4" stroke="#de8431" stroke-width="2" stroke-opacity="1"><g><path d="M 13 10C 11.3431 10 10 11.3431 10 13M 55.40625 10L 13 10M 58.40625 41C 58.40625 42.6569 57.06315 44 55.40625 44M 55.40625 10C 57.06315 10 58.40625 11.3431 58.40625 13M 10 41.000002L 10 13M 58.40625 41.000002L 58.40625 13M 13 44L 55.40625 44M 13 44C 11.3431 44 10 42.6569 10 41"></path></g></g></g><g id="g-root-cp_1-1_g-1-1_zmjsul13re4ue-fill" data-item-order="-429021" transform="translate(370.7239990234375, 122)"></g><g id="g-root-cp_1-1_g-1-1_zmjsul13re4ue-stroke" data-item-order="-429021" transform="translate(370.7239990234375, 122)"><g id="cp_1-1_g-1-1_zmjsul13re4ue-stroke" fill="none" stroke-linecap="round" stroke-linejoin="round" stroke-miterlimit="4" stroke="#de8431" stroke-width="2" stroke-opacity="1"><g><path d="M 13 10C 11.3431 10 10 11.3431 10 13M 95.541626 10L 13 10M 98.541626 43C 98.541626 44.6569 97.198526 46 95.541626 46M 95.541626 10C 97.198526 10 98.541626 11.3431 98.541626 13M 10 43L 10 13M 98.541626 43L 98.541626 13M 13 46.000002L 95.541626 46.000002M 13 46C 11.3431 46 10 44.6569 10 43"></path></g></g></g><g id="g-root-cp_1-2_g-1-2_qqwslp13re5n3-fill" data-item-order="-428985" transform="translate(370.7239990234375, 170)"></g><g id="g-root-cp_1-2_g-1-2_qqwslp13re5n3-stroke" data-item-order="-428985" transform="translate(370.7239990234375, 170)"><g id="cp_1-2_g-1-2_qqwslp13re5n3-stroke" fill="none" stroke-linecap="round" stroke-linejoin="round" stroke-miterlimit="4" stroke="#de8431" stroke-width="2" stroke-opacity="1"><g><path d="M 13 10C 11.3431 10 10 11.3431 10 13M 80.208374 10L 13 10M 83.208374 31C 83.208374 32.6569 81.865274 34 80.208374 34M 80.208374 10C 81.865274 10 83.208374 11.3431 83.208374 13M 10 31L 10 13M 83.208374 31L 83.208374 13M 13 34L 80.208374 34M 13 34C 11.3431 34 10 32.6569 10 31"></path></g></g></g><g id="g-root-cp_1-3_g-1-3_hvw9fx13re41s-fill" data-item-order="-428949" transform="translate(370.7239990234375, 206)"></g><g id="g-root-cp_1-3_g-1-3_hvw9fx13re41s-stroke" data-item-order="-428949" transform="translate(370.7239990234375, 206)"><g id="cp_1-3_g-1-3_hvw9fx13re41s-stroke" fill="none" stroke-linecap="round" stroke-linejoin="round" stroke-miterlimit="4" stroke="#de8431" stroke-width="2" stroke-opacity="1"><g><path d="M 13 10C 11.3431 10 10 11.3431 10 13M 98.09375 10L 13 10M 101.09375 31C 101.09375 32.6569 99.75065 34 98.09375 34M 98.09375 10C 99.75065 10 101.09375 11.3431 101.09375 13M 10 31L 10 13M 101.09375 31L 101.09375 13M 13 34L 98.09375 34M 13 34C 11.3431 34 10 32.6569 10 31"></path></g></g></g><g id="g-root-cp_2_g-2_90997113re4uh-fill" data-item-order="-428907" transform="translate(286.3177490234375, 297)"></g><g id="g-root-cp_2_g-2_90997113re4uh-stroke" data-item-order="-428907" transform="translate(286.3177490234375, 297)"><g id="cp_2_g-2_90997113re4uh-stroke" fill="none" stroke-linecap="round" stroke-linejoin="round" stroke-miterlimit="4" stroke="#e55753" stroke-width="2" stroke-opacity="1"><g><path d="M 13 10C 11.3431 10 10 11.3431 10 13M 78.4375 10L 13 10M 81.4375 41C 81.4375 42.6569 80.0944 44 78.4375 44M 78.4375 10C 80.0944 10 81.4375 11.3431 81.4375 13M 10 41.000002L 10 13M 81.4375 41.000002L 81.4375 13M 13 44L 78.4375 44M 13 44C 11.3431 44 10 42.6569 10 41"></path></g></g></g><g id="g-root-cp_2-1_g-2-1_1upwsst13re68a-fill" data-item-order="-428865" transform="translate(393.7552490234375, 278)"></g><g id="g-root-cp_2-1_g-2-1_1upwsst13re68a-stroke" data-item-order="-428865" transform="translate(393.7552490234375, 278)"><g id="cp_2-1_g-2-1_1upwsst13re68a-stroke" fill="none" stroke-linecap="round" stroke-linejoin="round" stroke-miterlimit="4" stroke="#e55753" stroke-width="2" stroke-opacity="1"><g><path d="M 13 10C 11.3431 10 10 11.3431 10 13M 110.833374 10L 13 10M 113.833374 43C 113.833374 44.6569 112.490274 46 110.833374 46M 110.833374 10C 112.490274 10 113.833374 11.3431 113.833374 13M 10 43L 10 13M 113.833374 43L 113.833374 13M 13 46L 110.833374 46M 13 46C 11.3431 46 10 44.6569 10 43"></path></g></g></g><g id="g-root-cp_2-2_g-2-2_1qaprrh13re3ur-fill" data-item-order="-428829" transform="translate(393.7552490234375, 326)"></g><g id="g-root-cp_2-2_g-2-2_1qaprrh13re3ur-stroke" data-item-order="-428829" transform="translate(393.7552490234375, 326)"><g id="cp_2-2_g-2-2_1qaprrh13re3ur-stroke" fill="none" stroke-linecap="round" stroke-linejoin="round" stroke-miterlimit="4" stroke="#e55753" stroke-width="2" stroke-opacity="1"><g><path d="M 13 10C 11.3431 10 10 11.3431 10 13M 116.375 10L 13 10M 119.375 31C 119.375 32.6569 118.0319 34 116.375 34M 116.375 10C 118.0319 10 119.375 11.3431 119.375 13M 10 31L 10 13M 119.375 31L 119.375 13M 13 34L 116.375 34M 13 34C 11.3431 34 10 32.6569 10 31"></path></g></g></g><g id="g-root-cp_3_g-3_1hf2ril13re4ng-fill" data-item-order="-428787" transform="translate(286.3177490234375, 447)"></g><g id="g-root-cp_3_g-3_1hf2ril13re4ng-stroke" data-item-order="-428787" transform="translate(286.3177490234375, 447)"><g id="cp_3_g-3_1hf2ril13re4ng-stroke" fill="none" stroke-linecap="round" stroke-linejoin="round" stroke-miterlimit="4" stroke="#de58a9" stroke-width="2" stroke-opacity="1"><g><path d="M 13 10C 11.3431 10 10 11.3431 10 13M 96.375 10L 13 10M 99.375 41C 99.375 42.6569 98.0319 44 96.375 44M 96.375 10C 98.0319 10 99.375 11.3431 99.375 13M 10 41.000002L 10 13M 99.375 41.000002L 99.375 13M 13 44L 96.375 44M 13 44C 11.3431 44 10 42.6569 10 41"></path></g></g></g><g id="g-root-cp_3-1_g-3-1_143m95913re68d-fill" data-item-order="-428745" transform="translate(411.6927490234375, 398)"></g><g id="g-root-cp_3-1_g-3-1_143m95913re68d-stroke" data-item-order="-428745" transform="translate(411.6927490234375, 398)"><g id="cp_3-1_g-3-1_143m95913re68d-stroke" fill="none" stroke-linecap="round" stroke-linejoin="round" stroke-miterlimit="4" stroke="#de58a9" stroke-width="2" stroke-opacity="1"><g><path d="M 13 10C 11.3431 10 10 11.3431 10 13M 103.1875 10L 13 10M 106.1875 31C 106.1875 32.6569 104.8444 34 103.1875 34M 103.1875 10C 104.8444 10 106.1875 11.3431 106.1875 13M 10 31L 10 13M 106.1875 31L 106.1875 13M 13 34L 103.1875 34M 13 34C 11.3431 34 10 32.6569 10 31"></path></g></g></g><g id="g-root-cp_3-2_g-3-2_zof83x13re3uu-fill" data-item-order="-428709" transform="translate(411.6927490234375, 434)"></g><g id="g-root-cp_3-2_g-3-2_zof83x13re3uu-stroke" data-item-order="-428709" transform="translate(411.6927490234375, 434)"><g id="cp_3-2_g-3-2_zof83x13re3uu-stroke" fill="none" stroke-linecap="round" stroke-linejoin="round" stroke-miterlimit="4" stroke="#de58a9" stroke-width="2" stroke-opacity="1"><g><path d="M 13 10C 11.3431 10 10 11.3431 10 13M 93.78125 10L 13 10M 96.78125 31C 96.78125 32.6569 95.43815 34 93.78125 34M 93.78125 10C 95.43815 10 96.78125 11.3431 96.78125 13M 10 31L 10 13M 96.78125 31L 96.78125 13M 13 34L 93.78125 34M 13 34C 11.3431 34 10 32.6569 10 31"></path></g></g></g><g id="g-root-cp_3-3_g-3-3_mcypql13re5fr-fill" data-item-order="-428673" transform="translate(411.6927490234375, 470)"></g><g id="g-root-cp_3-3_g-3-3_mcypql13re5fr-stroke" data-item-order="-428673" transform="translate(411.6927490234375, 470)"><g id="cp_3-3_g-3-3_mcypql13re5fr-stroke" fill="none" stroke-linecap="round" stroke-linejoin="round" stroke-miterlimit="4" stroke="#de58a9" stroke-width="2" stroke-opacity="1"><g><path d="M 13 10C 11.3431 10 10 11.3431 10 13M 87.0625 10L 13 10M 90.0625 31C 90.0625 32.6569 88.7194 34 87.0625 34M 87.0625 10C 88.7194 10 90.0625 11.3431 90.0625 13M 10 31L 10 13M 90.0625 31L 90.0625 13M 13 34L 87.0625 34M 13 34C 11.3431 34 10 32.6569 10 31"></path></g></g></g><g id="g-root-cp_3-4_g-3-4_hx57m513re680-fill" data-item-order="-428637" transform="translate(411.6927490234375, 506)"></g><g id="g-root-cp_3-4_g-3-4_hx57m513re680-stroke" data-item-order="-428637" transform="translate(411.6927490234375, 506)"><g id="cp_3-4_g-3-4_hx57m513re680-stroke" fill="none" stroke-linecap="round" stroke-linejoin="round" stroke-miterlimit="4" stroke="#de58a9" stroke-width="2" stroke-opacity="1"><g><path d="M 13 10C 11.3431 10 10 11.3431 10 13M 101.65625 10L 13 10M 104.65625 31C 104.65625 32.6569 103.31315 34 101.65625 34M 101.65625 10C 103.31315 10 104.65625 11.3431 104.65625 13M 10 31L 10 13M 104.65625 31L 104.65625 13M 13 34L 101.65625 34M 13 34C 11.3431 34 10 32.6569 10 31"></path></g></g></g><g id="g-root-cp_4_g-4_924ogd13re3ux-fill" data-item-order="-428595" transform="translate(286.3177490234375, 633)"></g><g id="g-root-cp_4_g-4_924ogd13re3ux-stroke" data-item-order="-428595" transform="translate(286.3177490234375, 633)"><g id="cp_4_g-4_924ogd13re3ux-stroke" fill="none" stroke-linecap="round" stroke-linejoin="round" stroke-miterlimit="4" stroke="#ba5de5" stroke-width="2" stroke-opacity="1"><g><path d="M 13 10C 11.3431 10 10 11.3431 10 13M 116.8125 10L 13 10M 119.8125 41C 119.8125 42.6569 118.4694 44 116.8125 44M 116.8125 10C 118.4694 10 119.8125 11.3431 119.8125 13M 10 41.000002L 10 13M 119.8125 41.000002L 119.8125 13M 13 44L 116.8125 44M 13 44C 11.3431 44 10 42.6569 10 41"></path></g></g></g><g id="g-root-cp_4-1_g-4-1_1urs82513re58q-fill" data-item-order="-428553" transform="translate(432.1302490234375, 578)"></g><g id="g-root-cp_4-1_g-4-1_1urs82513re58q-stroke" data-item-order="-428553" transform="translate(432.1302490234375, 578)"><g id="cp_4-1_g-4-1_1urs82513re58q-stroke" fill="none" stroke-linecap="round" stroke-linejoin="round" stroke-miterlimit="4" stroke="#ba5de5" stroke-width="2" stroke-opacity="1"><g><path d="M 13 10C 11.3431 10 10 11.3431 10 13M 111.083405 10L 13 10M 114.083405 43C 114.083405 44.6569 112.740305 46 111.083405 46M 111.083405 10C 112.740305 10 114.083405 11.3431 114.083405 13M 10 43L 10 13M 114.083405 43L 114.083405 13M 13 46L 111.083405 46M 13 46C 11.3431 46 10 44.6569 10 43"></path></g></g></g><g id="g-root-cp_4-2_g-4-2_1qbypxp13re60z-fill" data-item-order="-428517" transform="translate(432.1302490234375, 626)"></g><g id="g-root-cp_4-2_g-4-2_1qbypxp13re60z-stroke" data-item-order="-428517" transform="translate(432.1302490234375, 626)"><g id="cp_4-2_g-4-2_1qbypxp13re60z-stroke" fill="none" stroke-linecap="round" stroke-linejoin="round" stroke-miterlimit="4" stroke="#ba5de5" stroke-width="2" stroke-opacity="1"><g><path d="M 13 10C 11.3431 10 10 11.3431 10 13M 99.84375 10L 13 10M 102.84375 31C 102.84375 32.6569 101.50065 34 99.84375 34M 99.84375 10C 101.50065 10 102.84375 11.3431 102.84375 13M 10 31L 10 13M 102.84375 31L 102.84375 13M 13 34L 99.84375 34M 13 34C 11.3431 34 10 32.6569 10 31"></path></g></g></g><g id="g-root-cp_4-3_g-4-3_1hgy6rx13re3nw-fill" data-item-order="-428481" transform="translate(432.1302490234375, 662)"></g><g id="g-root-cp_4-3_g-4-3_1hgy6rx13re3nw-stroke" data-item-order="-428481" transform="translate(432.1302490234375, 662)"><g id="cp_4-3_g-4-3_1hgy6rx13re3nw-stroke" fill="none" stroke-linecap="round" stroke-linejoin="round" stroke-miterlimit="4" stroke="#ba5de5" stroke-width="2" stroke-opacity="1"><g><path d="M 13 10C 11.3431 10 10 11.3431 10 13M 124.125031 10L 13 10M 127.125031 31C 127.125031 32.6569 125.781931 34 124.125031 34M 124.125031 10C 125.781931 10 127.125031 11.3431 127.125031 13M 10 31L 10 13M 127.125031 31L 127.125031 13M 13 34L 124.125031 34M 13 34C 11.3431 34 10 32.6569 10 31"></path></g></g></g><g id="g-root-cp_4-4_g-4-4_145hoel13re58t-fill" data-item-order="-428445" transform="translate(432.1302490234375, 698)"></g><g id="g-root-cp_4-4_g-4-4_145hoel13re58t-stroke" data-item-order="-428445" transform="translate(432.1302490234375, 698)"><g id="cp_4-4_g-4-4_145hoel13re58t-stroke" fill="none" stroke-linecap="round" stroke-linejoin="round" stroke-miterlimit="4" stroke="#ba5de5" stroke-width="2" stroke-opacity="1"><g><path d="M 13 10C 11.3431 10 10 11.3431 10 13M 133.187531 10L 13 10M 136.187531 31C 136.187531 32.6569 134.844431 34 133.187531 34M 133.187531 10C 134.844431 10 136.187531 11.3431 136.187531 13M 10 31L 10 13M 136.187531 31L 136.187531 13M 13 34L 133.187531 34M 13 34C 11.3431 34 10 32.6569 10 31"></path></g></g></g><g id="g-root-he_zpo6a513re613-fill" data-item-order="-428405" transform="translate(190.3177490234375, 176)"></g><g id="g-root-he_zpo6a513re613-stroke" data-item-order="-428405" transform="translate(190.3177490234375, 176)"><g id="he_zpo6a513re613-stroke" fill="none" stroke-linecap="round" stroke-linejoin="round" stroke-miterlimit="4" stroke="#484848" stroke-width="2" stroke-opacity="1"><g><path d="M 15.999969 256L 57.999985 256M 100 10L 57.999985 10L 57.999985 484L 100 484M 57.999985 148L 100 148M 57.999985 298L 100 298"></path></g></g></g><g id="g-root-he_vah58t13re3nl-fill" data-item-order="-428403" transform="translate(334.7239990234375, 140)"></g><g id="g-root-he_vah58t13re3nl-stroke" data-item-order="-428403" transform="translate(334.7239990234375, 140)"><g id="he_vah58t13re3nl-stroke" fill="none" stroke-linecap="round" stroke-linejoin="round" stroke-miterlimit="4" stroke="#de8431" stroke-width="2" stroke-opacity="1"><g><path d="M 16 46L 28 46M 40 10L 28 10L 28 88L 40 88M 28 52L 40 52"></path></g></g></g><g id="g-root-he_meu4zx13re4gb-fill" data-item-order="-428401" transform="translate(357.7552490234375, 296)"></g><g id="g-root-he_meu4zx13re4gb-stroke" data-item-order="-428401" transform="translate(357.7552490234375, 296)"><g id="he_meu4zx13re4gb-stroke" fill="none" stroke-linecap="round" stroke-linejoin="round" stroke-miterlimit="4" stroke="#e55753" stroke-width="2" stroke-opacity="1"><g><path d="M 16 28L 28 28M 40 10L 28 10L 28 52L 40 52"></path></g></g></g><g id="g-root-he_meu4zx13re4gd-fill" data-item-order="-428399" transform="translate(375.6927490234375, 410)"></g><g id="g-root-he_meu4zx13re4gd-stroke" data-item-order="-428399" transform="translate(375.6927490234375, 410)"><g id="he_meu4zx13re4gd-stroke" fill="none" stroke-linecap="round" stroke-linejoin="round" stroke-miterlimit="4" stroke="#de58a9" stroke-width="2" stroke-opacity="1"><g><path d="M 16 64L 28 64M 40 10L 28 10L 28 118L 40 118M 28 46L 40 46M 28 82L 40 82"></path></g></g></g><g id="g-root-he_meu4zx13re4gf-fill" data-item-order="-428397" transform="translate(396.1302490234375, 596)"></g><g id="g-root-he_meu4zx13re4gf-stroke" data-item-order="-428397" transform="translate(396.1302490234375, 596)"><g id="he_meu4zx13re4gf-stroke" fill="none" stroke-linecap="round" stroke-linejoin="round" stroke-miterlimit="4" stroke="#ba5de5" stroke-width="2" stroke-opacity="1"><g><path d="M 16 64L 28 64M 40 10L 28 10L 28 124L 40 124M 28 52L 40 52M 28 88L 40 88"></path></g></g></g><g id="g-root-tx_entertex_7qpjh13qxb7r-fill" data-item-order="0" transform="translate(417.6927490234375, 404)"><g id="tx_entertex_7qpjh13qxb7r-fill-merged" stroke="none" fill="#de58a9" fill-opacity="1"><g><text style="font: 10.5px Roboto, sans-serif; white-space: pre;" transform="translate(10, 16)" font-size="10.5px" font-family="Roboto, sans-serif"><tspan x="2" y="6" dominant-baseline="ideographic">Enter Text Button</tspan></text></g></g></g><g id="g-root-tx_entertex_7qpjh13qxb7r-stroke" data-item-order="0" transform="translate(417.6927490234375, 404)"></g><g id="g-root-tx_signlang_1ursb7x13qvvgg-fill" data-item-order="0" transform="translate(71.86978149414062, 408)"><g id="tx_signlang_1ursb7x13qvvgg-fill-merged" stroke="none" fill="#484848" fill-opacity="1"><g><text style="font: 12px Roboto, sans-serif; white-space: pre;" transform="translate(63.223968505859375, 24)" font-size="12px" font-family="Roboto, sans-serif"><tspan x="-39.49" y="-0" dominant-baseline="ideographic">Sign Language </tspan><tspan x="-51.22" y="14" dominant-baseline="ideographic">Translation System</tspan></text></g></g></g><g id="g-root-tx_signlang_1ursb7x13qvvgg-stroke" data-item-order="0" transform="translate(71.86978149414062, 408)"></g><g id="g-root-tx_preproce_1cu9jv113qynt7-fill" data-item-order="0" transform="translate(417.6927490234375, 440)"><g id="tx_preproce_1cu9jv113qynt7-fill-merged" stroke="none" fill="#de58a9" fill-opacity="1"><g><text style="font: 10.5px Roboto, sans-serif; white-space: pre;" transform="translate(10, 16)" font-size="10.5px" font-family="Roboto, sans-serif"><tspan x="2" y="6" dominant-baseline="ideographic">Pre-Processing</tspan></text></g></g></g><g id="g-root-tx_preproce_1cu9jv113qynt7-stroke" data-item-order="0" transform="translate(417.6927490234375, 440)"></g><g id="g-root-tx_texttosi_18lb9ot13qx8uk-fill" data-item-order="0" transform="translate(296.3177490234375, 457)"><g id="tx_texttosi_18lb9ot13qx8uk-fill-merged" stroke="none" fill="#de58a9" fill-opacity="1"><g><text style="font: 12px Roboto, sans-serif; white-space: pre;" transform="translate(10, 17)" font-size="12px" font-family="Roboto, sans-serif"><tspan x="2" y="7" dominant-baseline="ideographic">Text To Sign</tspan></text></g></g></g><g id="g-root-tx_texttosi_18lb9ot13qx8uk-stroke" data-item-order="0" transform="translate(296.3177490234375, 457)"></g><g id="g-root-tx_processe_1hf2uod13qx91j-fill" data-item-order="0" transform="translate(399.7552490234375, 332)"><g id="tx_processe_1hf2uod13qx91j-fill-merged" stroke="none" fill="#e55753" fill-opacity="1"><g><text style="font: 10.5px Roboto, sans-serif; white-space: pre;" transform="translate(10, 16)" font-size="10.5px" font-family="Roboto, sans-serif"><tspan x="2" y="6" dominant-baseline="ideographic">Processes Gestures</tspan></text></g></g></g><g id="g-root-tx_processe_1hf2uod13qx91j-stroke" data-item-order="0" transform="translate(399.7552490234375, 332)"></g><g id="g-root-tx_modelsea_4gozpp13qyq6e-fill" data-item-order="0" transform="translate(417.6927490234375, 476)"><g id="tx_modelsea_4gozpp13qyq6e-fill-merged" stroke="none" fill="#de58a9" fill-opacity="1"><g><text style="font: 10.5px Roboto, sans-serif; white-space: pre;" transform="translate(10, 16)" font-size="10.5px" font-family="Roboto, sans-serif"><tspan x="2" y="6" dominant-baseline="ideographic">Model Search</tspan></text></g></g></g><g id="g-root-tx_modelsea_4gozpp13qyq6e-stroke" data-item-order="0" transform="translate(417.6927490234375, 476)"></g><g id="g-root-tx_aimodel_8ydx3h13qxa89-fill" data-item-order="0" transform="translate(296.3177490234375, 307)"><g id="tx_aimodel_8ydx3h13qxa89-fill-merged" stroke="none" fill="#e55753" fill-opacity="1"><g><text style="font: 12px Roboto, sans-serif; white-space: pre;" transform="translate(10, 17)" font-size="12px" font-family="Roboto, sans-serif"><tspan x="2" y="7" dominant-baseline="ideographic">AI Model</tspan></text></g></g></g><g id="g-root-tx_aimodel_8ydx3h13qxa89-stroke" data-item-order="0" transform="translate(296.3177490234375, 307)"></g><g id="g-root-tx_avatarge_v4uyml13qyp6p-fill" data-item-order="0" transform="translate(417.6927490234375, 512)"><g id="tx_avatarge_v4uyml13qyp6p-fill-merged" stroke="none" fill="#de58a9" fill-opacity="1"><g><text style="font: 10.5px Roboto, sans-serif; white-space: pre;" transform="translate(10, 16)" font-size="10.5px" font-family="Roboto, sans-serif"><tspan x="2" y="6" dominant-baseline="ideographic">Avatar Generator</tspan></text></g></g></g><g id="g-root-tx_avatarge_v4uyml13qyp6p-stroke" data-item-order="0" transform="translate(417.6927490234375, 512)"></g><g id="g-root-tx_connecte_qqwvrh13qxa18-fill" data-item-order="0" transform="translate(399.7552490234375, 284)"><g id="tx_connecte_qqwvrh13qxa18-fill-merged" stroke="none" fill="#e55753" fill-opacity="1"><g><text style="font: 10.5px Roboto, sans-serif; white-space: pre;" transform="translate(10, 22)" font-size="10.5px" font-family="Roboto, sans-serif"><tspan x="2" y="-0" dominant-baseline="ideographic">Connected to Sign </tspan><tspan x="2" y="12" dominant-baseline="ideographic">Translation</tspan></text></g></g></g><g id="g-root-tx_connecte_qqwvrh13qxa18-stroke" data-item-order="0" transform="translate(399.7552490234375, 284)"></g><g id="g-root-tx_generate_de7f7x13r01s3-fill" data-item-order="0" transform="translate(438.1302490234375, 704)"><g id="tx_generate_de7f7x13r01s3-fill-merged" stroke="none" fill="#ba5de5" fill-opacity="1"><g><text style="font: 10.5px Roboto, sans-serif; white-space: pre;" transform="translate(10, 16)" font-size="10.5px" font-family="Roboto, sans-serif"><tspan x="2" y="6" dominant-baseline="ideographic">Generate &amp; Display Text</tspan></text></g></g></g><g id="g-root-tx_generate_de7f7x13r01s3-stroke" data-item-order="0" transform="translate(438.1302490234375, 704)"></g><g id="g-root-tx_indicate_4gozpp13r03ke-fill" data-item-order="0" transform="translate(438.1302490234375, 584)"><g id="tx_indicate_4gozpp13r03ke-fill-merged" stroke="none" fill="#ba5de5" fill-opacity="1"><g><text style="font: 10.5px Roboto, sans-serif; white-space: pre;" transform="translate(10, 22)" font-size="10.5px" font-family="Roboto, sans-serif"><tspan x="2" y="-0" dominant-baseline="ideographic">Indicate Camera &amp; </tspan><tspan x="2" y="12" dominant-baseline="ideographic">Capture</tspan></text></g></g></g><g id="g-root-tx_indicate_4gozpp13r03ke-stroke" data-item-order="0" transform="translate(438.1302490234375, 584)"></g><g id="g-root-tx_texttosi_1cu9jv113qx9my-fill" data-item-order="0" transform="translate(376.7239990234375, 176)"><g id="tx_texttosi_1cu9jv113qx9my-fill-merged" stroke="none" fill="#de8431" fill-opacity="1"><g><text style="font: 10.5px Roboto, sans-serif; white-space: pre;" transform="translate(10, 16)" font-size="10.5px" font-family="Roboto, sans-serif"><tspan x="2" y="6" dominant-baseline="ideographic">Text To Sign</tspan></text></g></g></g><g id="g-root-tx_texttosi_1cu9jv113qx9my-stroke" data-item-order="0" transform="translate(376.7239990234375, 176)"></g><g id="g-root-tx_user_qu197113qvx1f-fill" data-item-order="0" transform="translate(296.3177490234375, 169)"><g id="tx_user_qu197113qvx1f-fill-merged" stroke="none" fill="#de8431" fill-opacity="1"><g><text style="font: 12px Roboto, sans-serif; white-space: pre;" transform="translate(10, 17)" font-size="12px" font-family="Roboto, sans-serif"><tspan x="2" y="7" dominant-baseline="ideographic">User</tspan></text></g></g></g><g id="g-root-tx_user_qu197113qvx1f-stroke" data-item-order="0" transform="translate(296.3177490234375, 169)"></g><g id="g-root-tx_signtran_13ymjm513r02ro-fill" data-item-order="0" transform="translate(296.3177490234375, 643)"><g id="tx_signtran_13ymjm513r02ro-fill-merged" stroke="none" fill="#ba5de5" fill-opacity="1"><g><text style="font: 12px Roboto, sans-serif; white-space: pre;" transform="translate(10, 17)" font-size="12px" font-family="Roboto, sans-serif"><tspan x="2" y="7" dominant-baseline="ideographic">Sign Translation</tspan></text></g></g></g><g id="g-root-tx_signtran_13ymjm513r02ro-stroke" data-item-order="0" transform="translate(296.3177490234375, 643)"></g><g id="g-root-tx_videopro_1hbc05p13r03cw-fill" data-item-order="0" transform="translate(438.1302490234375, 632)"><g id="tx_videopro_1hbc05p13r03cw-fill-merged" stroke="none" fill="#ba5de5" fill-opacity="1"><g><text style="font: 10.5px Roboto, sans-serif; white-space: pre;" transform="translate(10, 16)" font-size="10.5px" font-family="Roboto, sans-serif"><tspan x="2" y="6" dominant-baseline="ideographic">Video Processor</tspan></text></g></g></g><g id="g-root-tx_videopro_1hbc05p13r03cw-stroke" data-item-order="0" transform="translate(438.1302490234375, 632)"></g><g id="g-root-tx_homescre_zrjop913qvuha-fill" data-item-order="0" transform="translate(376.7239990234375, 128)"><g id="tx_homescre_zrjop913qvuha-fill-merged" stroke="none" fill="#de8431" fill-opacity="1"><g><text style="font: 10.5px Roboto, sans-serif; white-space: pre;" transform="translate(10, 22)" font-size="10.5px" font-family="Roboto, sans-serif"><tspan x="2" y="-0" dominant-baseline="ideographic">Home Screen / </tspan><tspan x="2" y="12" dominant-baseline="ideographic">Dashboard</tspan></text></g></g></g><g id="g-root-tx_homescre_zrjop913qvuha-stroke" data-item-order="0" transform="translate(376.7239990234375, 128)"></g><g id="g-root-tx_detectha_qp1gi513r03cy-fill" data-item-order="0" transform="translate(438.1302490234375, 668)"><g id="tx_detectha_qp1gi513r03cy-fill-merged" stroke="none" fill="#ba5de5" fill-opacity="1"><g><text style="font: 10.5px Roboto, sans-serif; white-space: pre;" transform="translate(10, 16)" font-size="10.5px" font-family="Roboto, sans-serif"><tspan x="2" y="6" dominant-baseline="ideographic">Detect Hand Keypoint</tspan></text></g></g></g><g id="g-root-tx_detectha_qp1gi513r03cy-stroke" data-item-order="0" transform="translate(438.1302490234375, 668)"></g><g id="g-root-tx_signlang_13ymjm513qvx1g-fill" data-item-order="0" transform="translate(154.02606201171875, 57.368408203125)"><g id="tx_signlang_13ymjm513qvx1g-fill-merged" stroke="none" fill="#484848" fill-opacity="1"><g><text style="font: bold 20px Roboto, sans-serif; white-space: pre;" transform="translate(167.97393798828125, 22)" font-weight="bold" font-size="20px" font-family="Roboto, sans-serif"><tspan x="-155.97" y="12" dominant-baseline="ideographic">Sign Language Translation System</tspan></text></g></g></g><g id="g-root-tx_signlang_13ymjm513qvx1g-stroke" data-item-order="0" transform="translate(154.02606201171875, 57.368408203125)"></g><g id="g-root-tx_signtran_hs5i3113qxaf8-fill" data-item-order="0" transform="translate(376.7239990234375, 212)"><g id="tx_signtran_hs5i3113qxaf8-fill-merged" stroke="none" fill="#de8431" fill-opacity="1"><g><text style="font: 10.5px Roboto, sans-serif; white-space: pre;" transform="translate(10, 16)" font-size="10.5px" font-family="Roboto, sans-serif"><tspan x="2" y="6" dominant-baseline="ideographic">Sign Translation</tspan></text></g></g></g><g id="g-root-tx_signtran_hs5i3113qxaf8-stroke" data-item-order="0" transform="translate(376.7239990234375, 212)"></g></g></g><path id="w1upx5gtzv76dh" d="M65.283 12.757a.35.35 0 0 0 .584.157l5.203-5.141-6.183 3.523.396 1.461zm-2.216-11.7a.35.35 0 0 0-.522.305v3.111l3.276-1.868-2.754-1.548zm3.728 2.105l-4.25 2.421v2.445l6.391-3.644-2.141-1.222zm4.708 3.303a.35.35 0 0 0 0-.609l-1.592-.9-7.365 4.199v1.782a.35.35 0 0 0 .523.305l8.435-4.777z M44.542 2.513c0-.433.355-.783.792-.783s.792.35.792.783-.355.783-.792.783-.792-.35-.792-.783zm59.171 0c0-.433.355-.783.792-.783s.792.35.792.783-.355.783-.792.783-.792-.35-.792-.783zm-85.951 7.636h-1.27v-.487c-.276.201-.864.609-1.881.609-1.202 0-2.274-.794-2.137-2.078.118-1.106 1.153-1.584 1.848-1.727l2.17-.345c0-.539-.29-.956-1.064-1.006s-1.21.305-1.571 1.017l-1.124-.605c1.218-2.631 5.029-1.764 5.029.414v4.207zm-1.27-2.86c.006.396-.062 1.112-.819 1.59-.587.37-1.841.299-1.903-.395-.049-.555.461-.791.906-.898l1.816-.297zm72.662 2.86h-1.27v-.487c-.276.201-.864.609-1.881.609-1.202 0-2.274-.794-2.137-2.078.118-1.106 1.153-1.584 1.848-1.727l2.17-.345c0-.539-.29-.956-1.064-1.006s-1.21.305-1.571 1.017l-1.124-.605c1.218-2.631 5.029-1.764 5.029.414v4.207zm-1.27-2.86c.006.396-.062 1.112-.82 1.59-.587.37-1.841.299-1.903-.395-.049-.555.461-.791.906-.898l1.816-.297zM99.096 10.149H97.85v-8.45h1.246v4.895l2.68-2.559h1.738l-2.633 2.535 2.715 3.578h-1.556l-2.077-2.707-.867.844v1.863zm6.053-6.114h-1.255v6.113h1.255V4.035zm-59.2 0h-1.255v6.113h1.255V4.035zm5.584 6.113V1.697h1.255v2.695c.361-.346 1-.485 1.47-.485 1.452 0 2.477 1.082 2.457 2.448v3.792h-1.27v-3.68c0-.408-.214-1.339-1.315-1.339-.968 0-1.342.756-1.342 1.339v3.681h-1.255zm-4.76-4.894V4.039h.621a.45.45 0 0 0 .45-.45v-.855h1.251v1.305h1.309v1.215h-1.309v3.109c0 .293.105.664.648.664.365 0 .531-.035.736-.07v1.137s-.361.113-.857.113c-1.398 0-1.777-1.051-1.777-1.788V5.254h-1.071zM36.528 4.039h-1.394l2.191 6.106h1.125l1.234-3.918 1.238 3.918h1.129l2.188-6.106h-1.383l-1.359 3.93-1.256-3.93h-1.124l-1.242 3.957-1.348-3.957zM26.212 7.141c-.02 1.566 1.187 3.129 3.223 3.129 1.566 0 2.383-.918 2.734-1.719L31.172 8c-.315.399-.801 1.094-1.738 1.094-1.145 0-1.825-.781-1.891-1.52h4.625c.074-.284.148-.995-.03-1.559-.336-1.064-1.221-2.102-2.839-2.102s-3.088 1.152-3.088 3.227zm1.363-.75h3.348c-.055-.43-.566-1.301-1.623-1.301a1.79 1.79 0 0 0-1.725 1.301zm-8.758.75c.038 1.758 1.277 3.133 3.145 3.133 1.074 0 1.723-.477 1.961-.672v.547h1.242V1.703h-1.258v2.888c-.414-.36-1.062-.68-1.93-.68-1.91 0-3.198 1.473-3.16 3.23zm1.309-.08c0 1.119.723 1.978 1.836 1.978a1.88 1.88 0 0 0 1.94-1.904c0-1.371-1.011-1.99-1.972-1.99s-1.805.798-1.805 1.916zm76.683-.028C96.771 5.275 95.532 3.9 93.664 3.9c-1.074 0-1.723.477-1.961.672v-.547h-1.242v8.22h1.258V9.583c.414.36 1.063.68 1.93.68 1.91 0 3.198-1.473 3.16-3.23zm-1.309.08c0-1.119-.723-1.978-1.836-1.978a1.88 1.88 0 0 0-1.94 1.904c0 1.371 1.011 1.99 1.972 1.99S95.5 8.231 95.5 7.113zM106.441 10.173V4.036h1.254v.382c.361-.346 1-.485 1.47-.485 1.452 0 2.477 1.082 2.457 2.448v3.792h-1.27V6.492c0-.408-.214-1.339-1.315-1.339-.969 0-1.342.756-1.342 1.339v3.681h-1.254zm-30.383-.021V1.824h1.084l4.215 5.777V1.824h1.32v8.328h-1.094l-4.207-5.796v5.796h-1.319zM5.24 10.149H4V2.377h1.014l2.664 3.597 2.654-3.592h1.03v7.766h-1.256V4.762L7.678 8.068 5.24 4.742v5.407z" transform="translate(508, 782)" fill="#80808088" stroke="none"></path></svg>